<svg width="41" height="47" viewBox="0 0 41 47" fill="none" xmlns="http://www.w3.org/2000/svg">
<g id="icon/instagram">
<path id="vector" fill-rule="evenodd" clip-rule="evenodd" d="M20.9805 6.30225C16.9069 6.30225 16.397 6.32189 14.7971 6.40624C13.2003 6.49059 12.1094 6.78408 11.1555 7.21276C10.1556 7.64721 9.24874 8.32894 8.49882 9.21171C7.73612 10.0773 7.14582 11.1246 6.769 12.2806C6.40004 13.383 6.14507 14.6447 6.07208 16.49C6.00008 18.3376 5.98209 18.9257 5.98209 23.6343C5.98209 28.3428 5.99908 28.9309 6.07208 30.7797C6.14507 32.625 6.39904 33.8856 6.77 34.9879C7.14596 36.1434 7.7359 37.1914 8.49982 38.058C9.24889 38.9393 10.1552 39.6215 11.1555 40.0569C12.1094 40.4845 13.2003 40.778 14.7971 40.8623C16.397 40.9467 16.9069 40.9663 20.9805 40.9663C25.0541 40.9663 25.564 40.9467 27.1638 40.8623C28.7607 40.778 29.8515 40.4845 30.8054 40.0558C31.8053 39.6213 32.7122 38.9396 33.4622 38.0568C34.2249 37.1912 34.8152 36.144 35.192 34.9879C35.5619 33.8856 35.8159 32.625 35.8889 30.7797C35.9619 28.9309 35.9789 28.3416 35.9789 23.6343C35.9789 18.9269 35.9619 18.3376 35.8889 16.4889C35.8159 14.6436 35.5619 13.383 35.191 12.2806C34.8144 11.1241 34.2241 10.0764 33.4612 9.21056C32.7121 8.32919 31.8058 7.64705 30.8054 7.2116C29.8515 6.78523 28.7597 6.49059 27.1628 6.40624C25.564 6.32304 25.0551 6.30225 20.9805 6.30225ZM20.9805 9.42548C24.9851 9.42548 25.46 9.44281 27.0418 9.526C28.5037 9.60342 29.2976 9.8842 29.8265 10.1234C30.5265 10.4365 31.0264 10.8132 31.5514 11.4187C32.0763 12.0253 32.4013 12.603 32.6722 13.4118C32.8782 14.0231 33.1222 14.9405 33.1892 16.6298C33.2612 18.4578 33.2762 19.0066 33.2762 23.6343C33.2762 28.2619 33.2612 28.8108 33.1892 30.6387C33.1222 32.328 32.8792 33.2455 32.6722 33.8567C32.4322 34.6095 32.0492 35.2906 31.5514 35.8499C31.0675 36.4253 30.4781 36.8679 29.8265 37.1452C29.2976 37.3832 28.5037 37.6651 27.0418 37.7425C25.46 37.8257 24.9861 37.8431 20.9805 37.8431C16.9749 37.8431 16.501 37.8257 14.9191 37.7425C13.4573 37.6651 12.6634 37.3843 12.1344 37.1452C11.483 36.8678 10.8936 36.4252 10.4096 35.8499C9.91184 35.2906 9.52884 34.6095 9.28873 33.8567C9.08276 33.2455 8.83878 32.328 8.77179 30.6387C8.6998 28.8108 8.6848 28.2619 8.6848 23.6343C8.6848 19.0066 8.6998 18.4578 8.77179 16.6298C8.83878 14.9405 9.08176 14.0231 9.28873 13.4118C9.5597 12.603 9.88567 12.0253 10.4096 11.4187C10.8935 10.8433 11.4829 10.4007 12.1344 10.1234C12.6634 9.88535 13.4573 9.60342 14.9191 9.526C16.501 9.44281 16.9759 9.42548 20.9805 9.42548Z" fill="white"/>
<path id="vector_2" fill-rule="evenodd" clip-rule="evenodd" d="M20.9805 29.4174C20.3233 29.4174 19.6725 29.2678 19.0654 28.9772C18.4582 28.6865 17.9065 28.2606 17.4418 27.7236C16.9771 27.1865 16.6085 26.549 16.357 25.8474C16.1055 25.1457 15.976 24.3937 15.976 23.6343C15.976 22.8748 16.1055 22.1228 16.357 21.4212C16.6085 20.7195 16.9771 20.082 17.4418 19.545C17.9065 19.008 18.4582 18.582 19.0654 18.2914C19.6725 18.0007 20.3233 17.8512 20.9805 17.8512C22.3077 17.8512 23.5806 18.4604 24.5192 19.545C25.4577 20.6295 25.9849 22.1005 25.9849 23.6343C25.9849 25.1681 25.4577 26.639 24.5192 27.7236C23.5806 28.8081 22.3077 29.4174 20.9805 29.4174ZM20.9805 14.7256C18.9359 14.7256 16.975 15.6642 15.5293 17.3349C14.0835 19.0056 13.2713 21.2715 13.2713 23.6343C13.2713 25.997 14.0835 28.2629 15.5293 29.9336C16.975 31.6043 18.9359 32.5429 20.9805 32.5429C23.0251 32.5429 24.9859 31.6043 26.4317 29.9336C27.8774 28.2629 28.6897 25.997 28.6897 23.6343C28.6897 21.2715 27.8774 19.0056 26.4317 17.3349C24.9859 15.6642 23.0251 14.7256 20.9805 14.7256ZM30.9324 14.5638C30.9324 15.1224 30.7404 15.658 30.3987 16.0529C30.0569 16.4478 29.5934 16.6697 29.1101 16.6697C28.6268 16.6697 28.1633 16.4478 27.8215 16.0529C27.4798 15.658 27.2878 15.1224 27.2878 14.5638C27.2878 14.0053 27.4798 13.4697 27.8215 13.0748C28.1633 12.6799 28.6268 12.458 29.1101 12.458C29.5934 12.458 30.0569 12.6799 30.3987 13.0748C30.7404 13.4697 30.9324 14.0053 30.9324 14.5638Z" fill="white"/>
</g>
</svg>
