<svg width="44" height="48" viewBox="0 0 44 48" fill="none" xmlns="http://www.w3.org/2000/svg">
<g id="icon/linkedin">
<path id="vector" d="M38.356 9.06107V39.2565C38.356 39.9469 38.1021 40.609 37.6501 41.0972C37.1982 41.5853 36.5852 41.8596 35.9461 41.8596H7.99154C7.3524 41.8596 6.73944 41.5853 6.2875 41.0972C5.83556 40.609 5.58167 39.9469 5.58167 39.2565V9.06107C5.58167 8.37069 5.83556 7.70859 6.2875 7.22043C6.73944 6.73226 7.3524 6.45801 7.99154 6.45801H35.9461C36.5852 6.45801 37.1982 6.73226 37.6501 7.22043C38.1021 7.70859 38.356 8.37069 38.356 9.06107ZM15.2212 19.9939H10.4014V36.6535H15.2212V19.9939ZM15.6549 14.2672C15.6575 13.8734 15.5882 13.4829 15.451 13.118C15.3138 12.7531 15.1115 12.421 14.8555 12.1406C14.5995 11.8602 14.2948 11.6371 13.959 11.4838C13.6231 11.3306 13.2626 11.2504 12.898 11.2476H12.8113C12.0699 11.2476 11.3589 11.5658 10.8346 12.132C10.3104 12.6983 10.0158 13.4663 10.0158 14.2672C10.0158 15.068 10.3104 15.836 10.8346 16.4023C11.3589 16.9686 12.0699 17.2867 12.8113 17.2867C13.1759 17.2964 13.5387 17.2284 13.8789 17.0866C14.2192 16.9448 14.5303 16.7319 14.7943 16.4602C15.0584 16.1885 15.2703 15.8633 15.418 15.503C15.5657 15.1428 15.6462 14.7547 15.6549 14.3609V14.2672ZM33.5362 26.5328C33.5362 21.5245 30.5865 19.5774 27.6561 19.5774C26.6966 19.5255 25.7413 19.7463 24.8855 20.2176C24.0296 20.689 23.3032 21.3945 22.7785 22.2638H22.6436V19.9939H18.113V36.6535H22.9328V27.7927C22.8631 26.8852 23.1277 25.9846 23.6692 25.2867C24.2107 24.5887 24.9852 24.1497 25.8246 24.0651H26.0078C27.5404 24.0651 28.6779 25.1063 28.6779 27.7302V36.6535H33.4976L33.5362 26.5328Z" fill="white"/>
</g>
</svg>
