<svg width="46" height="51" viewBox="0 0 46 51" fill="none" xmlns="http://www.w3.org/2000/svg">
<g id="icon/whatsapp">
<path id="vector" d="M23.1193 7.46655C13.9719 7.46655 6.52752 15.5585 6.52429 25.5032C6.52214 28.6834 7.28765 31.7872 8.73911 34.5209L6.38452 43.8674L15.1825 41.3594C17.6298 42.8041 20.351 43.5577 23.1128 43.5555H23.1193C32.2667 43.5555 39.7111 35.4624 39.7143 25.5177C39.7165 20.7007 37.9919 16.1663 34.8578 12.758C31.7248 9.34848 27.5586 7.46777 23.1193 7.46655ZM23.1193 40.5088H23.1139C20.6389 40.5088 18.2112 39.7856 16.0932 38.4194L15.5878 38.0942L10.369 39.5818L11.7624 34.0489L11.4345 33.4822C10.0571 31.1115 9.32392 28.3381 9.32507 25.5032C9.32829 17.2365 15.5169 10.5133 23.1247 10.5133C26.8082 10.5145 30.2712 12.0761 32.8763 14.9093C35.4814 17.7425 36.9146 21.51 36.9125 25.5165C36.9092 33.7831 30.7217 40.5088 23.1182 40.5088H23.1193ZM30.6852 29.2791C30.2701 29.0547 28.2317 27.9639 27.8511 27.8122C27.4715 27.6629 27.1952 27.5853 26.9189 28.0367C26.6437 28.488 25.848 29.5036 25.6072 29.8033C25.3642 30.1042 25.1223 30.1406 24.7073 29.9162C24.2923 29.6905 22.9559 29.2148 21.3732 27.6787C20.14 26.4848 19.3079 25.0093 19.066 24.5567C18.8241 24.1066 19.0402 23.8627 19.2477 23.6382C19.4337 23.438 19.6627 23.1128 19.8691 22.8495C20.0755 22.5862 20.1443 22.3982 20.2841 22.0973C20.4217 21.7976 20.3529 21.533 20.2486 21.3086C20.1443 21.0817 19.3165 18.8636 18.9692 17.9621C18.6338 17.0836 18.2919 17.2013 18.037 17.1868C17.7951 17.1747 17.5199 17.171 17.2414 17.171C16.9673 17.171 16.5168 17.2839 16.1362 17.7352C15.7566 18.1866 14.6847 19.2762 14.6847 21.4942C14.6847 23.7134 16.1706 25.8562 16.3781 26.1572C16.5856 26.4569 19.3025 31.0106 23.4623 32.9641C24.4514 33.4264 25.2234 33.7043 25.8265 33.913C26.82 34.2563 27.7242 34.2066 28.4381 34.0913C29.2337 33.9615 30.8916 33.0017 31.2356 31.9497C31.5818 30.8978 31.5818 29.995 31.4786 29.8069C31.3776 29.6189 31.1002 29.506 30.6852 29.2791Z" fill="white"/>
</g>
</svg>
